/* XPM */
static const char *backspace_medium[] = {
/* width height num_colors chars_per_pixel */
"    12     9        2            1",
/* colors */
". c #000000",
"# c #ffffff",
/* pixels */
"####.#######",
"###..#######",
"##...#######",
"#....#######",
"............",
"#....#######",
"##...#######",
"###..#######",
"####.#######"
};
