/* XPM */
static const char *enter_small[] = {
/* width height num_colors chars_per_pixel */
"     9     5        2            1",
/* colors */
". c #000000",
"# c #ffffff",
/* pixels */
"###.#####",
"#...####.",
".........",
"#...#####",
"###.#####"
};
