/* XPM */
static const char *enter_large[] = {
/* width height num_colors chars_per_pixel */
"    16    10        2            1",
/* colors */
". c #000000",
"# c #ffffff",
/* pixels */
"#######.########",
"#####...######..",
"###.....######..",
"#.......######..",
"................",
"................",
"#.......########",
"###.....########",
"#####...########",
"#######.########"
};
