/* XPM */
static const char *font_large[] = {
/* width height num_colors chars_per_pixel */
"    14    22        2            1",
/* colors */
". c #000000",
"# c #ffffff",
/* pixels */
"..............",
"#...########..",
"##..#########.",
"##..##########",
"##..##########",
"##..##########",
"##..##########",
"##..##########",
"##..########.#",
"##..#######..#",
"##...........#",
"##..#######..#",
"##..########.#",
"##..##########",
"##..##########",
"##..##########",
"##..##########",
"##..##########",
"##..##########",
"##..##########",
"#....#########",
"......########"
};
