/* XPM */
static const char *font_medium[] = {
/* width height num_colors chars_per_pixel */
"     9    13        2            1",
/* colors */
". c #000000",
"# c #ffffff",
/* pixels */
".........",
"#..####..",
"#..#####.",
"#..######",
"#..######",
"#..####.#",
"#.......#",
"#..####.#",
"#..######",
"#..######",
"#..######",
"#..######",
"....#####"
};
