/* XPM */
static const char *font_small[] = {
/* width height num_colors chars_per_pixel */
"     5     7        2            1",
/* colors */
". c #000000",
"# c #ffffff",
/* pixels */
".....",
"#.##.",
"#.###",
"#...#",
"#.###",
"#.###",
"...##"
};
