/* XPM */
static const char *shift_large[] = {
/* width height num_colors chars_per_pixel */
"    10    16        2            1",
/* colors */
". c #000000",
"# c #ffffff",
/* pixels */
"####..####",
"###....###",
"###....###",
"##......##",
"##......##",
"#........#",
"#........#",
"..........",
"..........",
"####..####",
"####..####",
"####..####",
"####..####",
"####..####",
"####..####",
"####..####"
};
