/* XPM */
static const char *shift_small[] = {
/* width height num_colors chars_per_pixel */
"     5     8        2            1",
/* colors */
". c #000000",
"# c #ffffff",
/* pixels */
"##.##",
"#...#",
"#...#",
".....",
".....",
"##.##",
"##.##",
"##.##"
};
