/* XPM */
static const char *shift_medium[] = {
/* width height num_colors chars_per_pixel */
"     7    11        2            1",
/* colors */
". c #000000",
"# c #ffffff",
/* pixels */
"###.###",
"##...##",
"##...##",
"#.....#",
"#.....#",
".......",
".......",
"###.###",
"###.###",
"###.###",
"###.###"
};
