/* XPM */
static const char *tab_medium[] = {
/* width height num_colors chars_per_pixel */
"    13     9        2            1",
/* colors */
". c #000000",
"# c #ffffff",
/* pixels */
"#######.####.",
"#######..###.",
"#######...##.",
"#######....#.",
".............",
"#######....#.",
"#######...##.",
"#######..###.",
"#######.####."
};
